<svg
  fill="none"
  xmlns="http://www.w3.org/2000/svg"
>
  <path
    d="M8.33333 4.16667C8.33333 6.46785 6.46785 8.33333 4.16667 8.33333C1.86548 8.33333 0 6.46785 0 4.16667C0 1.86548 1.86548 0 4.16667 0C6.46785 0 8.33333 1.86548 8.33333 4.16667Z"
    fill="white"
    fill-opacity="0.38"
  />
  <path
    d="M36.6666 4.16667C36.6666 6.46785 34.8012 8.33333 32.5 8.33333C30.1988 8.33333 28.3333 6.46785 28.3333 4.16667C28.3333 1.86548 30.1988 0 32.5 0C34.8012 0 36.6666 1.86548 36.6666 4.16667Z"
    fill="white"
    fill-opacity="0.38"
  />
  <path
    d="M65 4.16667C65 6.46785 63.1345 8.33333 60.8333 8.33333C58.5321 8.33333 56.6666 6.46785 56.6666 4.16667C56.6666 1.86548 58.5321 0 60.8333 0C63.1345 0 65 1.86548 65 4.16667Z"
    fill="white"
    fill-opacity="0.38"
  />
  <path
    d="M93.3333 4.16667C93.3333 6.46785 91.4678 8.33333 89.1667 8.33333C86.8655 8.33333 85 6.46785 85 4.16667C85 1.86548 86.8655 0 89.1667 0C91.4678 0 93.3333 1.86548 93.3333 4.16667Z"
    fill="white"
    fill-opacity="0.38"
  />
  <path
    d="M121.667 4.16667C121.667 6.46785 119.801 8.33333 117.5 8.33333C115.199 8.33333 113.333 6.46785 113.333 4.16667C113.333 1.86548 115.199 0 117.5 0C119.801 0 121.667 1.86548 121.667 4.16667Z"
    fill="white"
    fill-opacity="0.38"
  />
  <path
    d="M150 4.16667C150 6.46785 148.135 8.33333 145.833 8.33333C143.532 8.33333 141.667 6.46785 141.667 4.16667C141.667 1.86548 143.532 0 145.833 0C148.135 0 150 1.86548 150 4.16667Z"
    fill="white"
    fill-opacity="0.38"
  />
  <path
    d="M8.33333 32.4999C8.33333 34.8011 6.46785 36.6666 4.16667 36.6666C1.86548 36.6666 0 34.8011 0 32.4999C0 30.1987 1.86548 28.3333 4.16667 28.3333C6.46785 28.3333 8.33333 30.1987 8.33333 32.4999Z"
    fill="white"
    fill-opacity="0.38"
  />
  <path
    d="M36.6666 32.4999C36.6666 34.8011 34.8012 36.6666 32.5 36.6666C30.1988 36.6666 28.3333 34.8011 28.3333 32.4999C28.3333 30.1987 30.1988 28.3333 32.5 28.3333C34.8012 28.3333 36.6666 30.1987 36.6666 32.4999Z"
    fill="white"
    fill-opacity="0.38"
  />
  <path
    d="M65 32.4999C65 34.8011 63.1345 36.6666 60.8333 36.6666C58.5321 36.6666 56.6666 34.8011 56.6666 32.4999C56.6666 30.1987 58.5321 28.3333 60.8333 28.3333C63.1345 28.3333 65 30.1987 65 32.4999Z"
    fill="white"
    fill-opacity="0.38"
  />
  <path
    d="M93.3333 32.4999C93.3333 34.8011 91.4678 36.6666 89.1667 36.6666C86.8655 36.6666 85 34.8011 85 32.4999C85 30.1987 86.8655 28.3333 89.1667 28.3333C91.4678 28.3333 93.3333 30.1987 93.3333 32.4999Z"
    fill="white"
    fill-opacity="0.38"
  />
  <path
    d="M121.667 32.4999C121.667 34.8011 119.801 36.6666 117.5 36.6666C115.199 36.6666 113.333 34.8011 113.333 32.4999C113.333 30.1987 115.199 28.3333 117.5 28.3333C119.801 28.3333 121.667 30.1987 121.667 32.4999Z"
    fill="white"
    fill-opacity="0.38"
  />
  <path
    d="M150 32.4999C150 34.8011 148.135 36.6666 145.833 36.6666C143.532 36.6666 141.667 34.8011 141.667 32.4999C141.667 30.1987 143.532 28.3333 145.833 28.3333C148.135 28.3333 150 30.1987 150 32.4999Z"
    fill="white"
    fill-opacity="0.38"
  />
  <path
    d="M8.33333 60.8332C8.33333 63.1344 6.46785 64.9998 4.16667 64.9998C1.86548 64.9998 0 63.1344 0 60.8332C0 58.532 1.86548 56.6665 4.16667 56.6665C6.46785 56.6665 8.33333 58.532 8.33333 60.8332Z"
    fill="white"
    fill-opacity="0.38"
  />
  <path
    d="M36.6666 60.8332C36.6666 63.1344 34.8012 64.9998 32.5 64.9998C30.1988 64.9998 28.3333 63.1344 28.3333 60.8332C28.3333 58.532 30.1988 56.6665 32.5 56.6665C34.8012 56.6665 36.6666 58.532 36.6666 60.8332Z"
    fill="white"
    fill-opacity="0.38"
  />
  <path
    d="M65 60.8332C65 63.1344 63.1345 64.9998 60.8333 64.9998C58.5321 64.9998 56.6666 63.1344 56.6666 60.8332C56.6666 58.532 58.5321 56.6665 60.8333 56.6665C63.1345 56.6665 65 58.532 65 60.8332Z"
    fill="white"
    fill-opacity="0.38"
  />
  <path
    d="M93.3333 60.8332C93.3333 63.1344 91.4678 64.9998 89.1667 64.9998C86.8655 64.9998 85 63.1344 85 60.8332C85 58.532 86.8655 56.6665 89.1667 56.6665C91.4678 56.6665 93.3333 58.532 93.3333 60.8332Z"
    fill="white"
    fill-opacity="0.38"
  />
  <path
    d="M121.667 60.8332C121.667 63.1344 119.801 64.9998 117.5 64.9998C115.199 64.9998 113.333 63.1344 113.333 60.8332C113.333 58.532 115.199 56.6665 117.5 56.6665C119.801 56.6665 121.667 58.532 121.667 60.8332Z"
    fill="white"
    fill-opacity="0.38"
  />
  <path
    d="M150 60.8332C150 63.1344 148.135 64.9998 145.833 64.9998C143.532 64.9998 141.667 63.1344 141.667 60.8332C141.667 58.532 143.532 56.6665 145.833 56.6665C148.135 56.6665 150 58.532 150 60.8332Z"
    fill="white"
    fill-opacity="0.38"
  />
  <path
    d="M8.33333 89.1664C8.33333 91.4676 6.46785 93.3331 4.16667 93.3331C1.86548 93.3331 0 91.4676 0 89.1664C0 86.8652 1.86548 84.9998 4.16667 84.9998C6.46785 84.9998 8.33333 86.8652 8.33333 89.1664Z"
    fill="white"
    fill-opacity="0.38"
  />
  <path
    d="M36.6666 89.1664C36.6666 91.4676 34.8012 93.3331 32.5 93.3331C30.1988 93.3331 28.3333 91.4676 28.3333 89.1664C28.3333 86.8652 30.1988 84.9998 32.5 84.9998C34.8012 84.9998 36.6666 86.8652 36.6666 89.1664Z"
    fill="white"
    fill-opacity="0.38"
  />
  <path
    d="M65 89.1664C65 91.4676 63.1345 93.3331 60.8333 93.3331C58.5321 93.3331 56.6666 91.4676 56.6666 89.1664C56.6666 86.8652 58.5321 84.9998 60.8333 84.9998C63.1345 84.9998 65 86.8652 65 89.1664Z"
    fill="white"
    fill-opacity="0.38"
  />
  <path
    d="M93.3333 89.1664C93.3333 91.4676 91.4678 93.3331 89.1667 93.3331C86.8655 93.3331 85 91.4676 85 89.1664C85 86.8652 86.8655 84.9998 89.1667 84.9998C91.4678 84.9998 93.3333 86.8652 93.3333 89.1664Z"
    fill="white"
    fill-opacity="0.38"
  />
  <path
    d="M121.667 89.1664C121.667 91.4676 119.801 93.3331 117.5 93.3331C115.199 93.3331 113.333 91.4676 113.333 89.1664C113.333 86.8652 115.199 84.9998 117.5 84.9998C119.801 84.9998 121.667 86.8652 121.667 89.1664Z"
    fill="white"
    fill-opacity="0.38"
  />
  <path
    d="M150 89.1664C150 91.4676 148.135 93.3331 145.833 93.3331C143.532 93.3331 141.667 91.4676 141.667 89.1664C141.667 86.8652 143.532 84.9998 145.833 84.9998C148.135 84.9998 150 86.8652 150 89.1664Z"
    fill="white"
    fill-opacity="0.38"
  />
  <path
    d="M8.33333 117.5C8.33333 119.801 6.46785 121.666 4.16667 121.666C1.86548 121.666 0 119.801 0 117.5C0 115.198 1.86548 113.333 4.16667 113.333C6.46785 113.333 8.33333 115.198 8.33333 117.5Z"
    fill="white"
    fill-opacity="0.38"
  />
  <path
    d="M36.6666 117.5C36.6666 119.801 34.8012 121.666 32.5 121.666C30.1988 121.666 28.3333 119.801 28.3333 117.5C28.3333 115.198 30.1988 113.333 32.5 113.333C34.8012 113.333 36.6666 115.198 36.6666 117.5Z"
    fill="white"
    fill-opacity="0.38"
  />
  <path
    d="M65 117.5C65 119.801 63.1345 121.666 60.8333 121.666C58.5321 121.666 56.6666 119.801 56.6666 117.5C56.6666 115.198 58.5321 113.333 60.8333 113.333C63.1345 113.333 65 115.198 65 117.5Z"
    fill="white"
    fill-opacity="0.38"
  />
  <path
    d="M93.3333 117.5C93.3333 119.801 91.4678 121.666 89.1667 121.666C86.8655 121.666 85 119.801 85 117.5C85 115.198 86.8655 113.333 89.1667 113.333C91.4678 113.333 93.3333 115.198 93.3333 117.5Z"
    fill="white"
    fill-opacity="0.38"
  />
  <path
    d="M121.667 117.5C121.667 119.801 119.801 121.666 117.5 121.666C115.199 121.666 113.333 119.801 113.333 117.5C113.333 115.198 115.199 113.333 117.5 113.333C119.801 113.333 121.667 115.198 121.667 117.5Z"
    fill="white"
    fill-opacity="0.38"
  />
  <path
    d="M150 117.5C150 119.801 148.135 121.666 145.833 121.666C143.532 121.666 141.667 119.801 141.667 117.5C141.667 115.198 143.532 113.333 145.833 113.333C148.135 113.333 150 115.198 150 117.5Z"
    fill="white"
    fill-opacity="0.38"
  />
  <path
    d="M8.33333 145.833C8.33333 148.134 6.46785 150 4.16667 150C1.86548 150 0 148.134 0 145.833C0 143.532 1.86548 141.666 4.16667 141.666C6.46785 141.666 8.33333 143.532 8.33333 145.833Z"
    fill="white"
    fill-opacity="0.38"
  />
  <path
    d="M36.6666 145.833C36.6666 148.134 34.8012 150 32.5 150C30.1988 150 28.3333 148.134 28.3333 145.833C28.3333 143.532 30.1988 141.666 32.5 141.666C34.8012 141.666 36.6666 143.532 36.6666 145.833Z"
    fill="white"
    fill-opacity="0.38"
  />
  <path
    d="M65 145.833C65 148.134 63.1345 150 60.8333 150C58.5321 150 56.6666 148.134 56.6666 145.833C56.6666 143.532 58.5321 141.666 60.8333 141.666C63.1345 141.666 65 143.532 65 145.833Z"
    fill="white"
    fill-opacity="0.38"
  />
  <path
    d="M93.3333 145.833C93.3333 148.134 91.4678 150 89.1667 150C86.8655 150 85 148.134 85 145.833C85 143.532 86.8655 141.666 89.1667 141.666C91.4678 141.666 93.3333 143.532 93.3333 145.833Z"
    fill="white"
    fill-opacity="0.38"
  />
  <path
    d="M121.667 145.833C121.667 148.134 119.801 150 117.5 150C115.199 150 113.333 148.134 113.333 145.833C113.333 143.532 115.199 141.666 117.5 141.666C119.801 141.666 121.667 143.532 121.667 145.833Z"
    fill="white"
    fill-opacity="0.38"
  />
  <path
    d="M150 145.833C150 148.134 148.135 150 145.833 150C143.532 150 141.667 148.134 141.667 145.833C141.667 143.532 143.532 141.666 145.833 141.666C148.135 141.666 150 143.532 150 145.833Z"
    fill="white"
    fill-opacity="0.38"
  />
</svg>