<svg
  width="217"
  height="41"
  viewBox="0 0 217 41"
  fill="none"
  xmlns="http://www.w3.org/2000/svg"
>
  <path
    d="M0 40.05H8.55V18.95L16.45 40.05H23.35L31.2 19V40.05H39.75V4.95H29.7L19.95 29.25L10.1 4.95H0V40.05Z"
    fill="black"
  />
  <path
    d="M73.1984 26.1C73.1984 17.25 66.8984 11.75 58.6984 11.75C50.5484 11.75 44.1984 17.25 44.1984 26.1C44.1984 34.95 50.3984 40.45 58.5984 40.45C66.7984 40.45 73.1984 34.95 73.1984 26.1ZM52.8984 26.1C52.8984 21.35 55.5984 19.15 58.6984 19.15C61.6984 19.15 64.4984 21.35 64.4984 26.1C64.4984 30.8 61.6484 33.05 58.5984 33.05C55.4984 33.05 52.8984 30.8 52.8984 26.1Z"
    fill="black"
  />
  <path
    d="M75.0844 12.15L84.9844 40.05H95.5344L105.434 12.15H96.3344L90.2844 32.05L84.2344 12.15H75.0844Z"
    fill="black"
  />
  <path
    d="M109.033 40.05H117.583V12.15H109.033V40.05ZM113.333 9.25C116.333 9.25 118.383 7.2 118.383 4.65C118.383 2.05 116.333 0 113.333 0C110.283 0 108.233 2.05 108.233 4.65C108.233 7.2 110.283 9.25 113.333 9.25Z"
    fill="black"
  />
  <path
    d="M136.079 18.6C138.929 18.6 141.329 20.35 141.329 23.4H130.629C131.129 20.3 133.279 18.6 136.079 18.6ZM149.429 30.8H140.329C139.629 32.3 138.279 33.5 135.879 33.5C133.129 33.5 130.879 31.8 130.579 28.15H149.929C150.029 27.3 150.079 26.45 150.079 25.65C150.079 17.15 144.329 11.75 136.179 11.75C127.879 11.75 122.079 17.25 122.079 26.1C122.079 34.95 127.979 40.45 136.179 40.45C143.129 40.45 148.079 36.25 149.429 30.8Z"
    fill="black"
  />
  <path
    d="M154.44 25.9C154.44 35.6 160.79 40.4 168.94 40.4C177.04 40.4 183.84 35.6 183.84 25.9V4.95H175.29V25.95C175.29 30.1 173.14 32.5 169.09 32.5C165.04 32.5 162.99 30.1 162.99 25.95V4.95H154.44V25.9Z"
    fill="#F5C518"
  />
  <path
    d="M198.394 20.65V11.85H203.044C206.444 11.85 207.894 13.55 207.894 16.25C207.894 18.95 206.444 20.65 203.044 20.65H198.394ZM216.594 16.25C216.594 9.8 212.294 4.95 203.694 4.95H189.844V40.05H198.394V27.45H203.694C212.644 27.45 216.594 22.05 216.594 16.25Z"
    fill="#F5C518"
  />
</svg>